<?xml version="1.0" encoding="utf-8"?>
<!-- Generator: Adobe Illustrator 23.1.1, SVG Export Plug-In . SVG Version: 6.00 Build 0)  -->
<svg version="1.1" id="Layer_1" xmlns="http://www.w3.org/2000/svg" xmlns:xlink="http://www.w3.org/1999/xlink" x="0px" y="0px"
	 viewBox="0 0 684 144" style="enable-background:new 0 0 684 144;" xml:space="preserve">
<style type="text/css">
	.st0{fill:#330033;}
	.st1{fill:#F2F2F2;}
	.st2{fill:#CC99FF;}
	.st3{font-family:'ArialMT';}
	.st4{font-size:65px;}
</style>
<g>
	<path class="st1" d="M104,25.6c4.3-0.1,8.4,0.7,12.6,1.3c4,0.6,7.9,1,11.9,1.6c5.4,0.7,10.7,1.5,16.1,2.2c1.1,0.2,1.7,0.7,1.9,1.8
		c0.2,1.2,0.5,2.4,0.8,3.7c0.3,1.4-0.1,2-1.5,2.3c-4.7,0.9-9.4,1.8-14.1,2.7c-3.8,0.7-7.5,1.5-11.3,2.3c-4.3,0.9-8.7,1.9-13,2.9
		c-2.6,0.6-5.1,1-7.7,1.6c-2.3,0.5-4.7,1.2-7,1.7c-6.2,1.5-12.6,2.3-19,1.3c-1.9-0.3-3.8-1-5.6-1.6c-1.2-0.4-2.4-0.8-3.6-1.2
		c-2.9-0.9-5.9-1.8-8.8-2.8c-1.6-0.5-3.2-1.2-4.9-1.7c-2.1-0.7-4.3-1.1-6.4-0.3c-2.3,0.8-4.4,3.3-4.3,6.5c0.1,2.8,2.7,5.6,5.1,6.2
		c1.9,0.5,3.6,1.2,5.5,1.8c1.3,0.4,2.6,0.8,3.8,1.2c1.7,0.5,3.5,1,5.2,1.5c1.8,0.6,3.6,1.2,5.5,1.8c1.4,0.4,2.7,0.9,4.1,1.3
		c1.8,0.5,3.7,1.1,5.5,1.6c1.6,0.4,3.1,1,4.7,1.2c3,0.5,6,0,8.9-0.9c0.2-0.1,0.5-0.2,0.7-0.2c2.6-0.5,5.1-1,7.7-1.6
		c2.4-0.5,4.8-1.2,7.2-1.7c1.7-0.4,3.5-0.8,5.2-1.2c2.4-0.5,4.9-1,7.3-1.6c2.6-0.6,5.2-1.2,7.8-1.8c1.8-0.4,3.7-0.9,5.5-1.3
		c2.5-0.5,5-1.1,7.5-1.6c0.6-0.1,1.2-0.3,1.8-0.5c2.4-0.7,4.6,0.6,5.1,3c0.1,0.6,0.3,1.2,0.5,1.8c0.2,0.9-0.1,1.4-1,1.6
		c-1.7,0.4-3.4,0.8-5.1,1.1c-2.6,0.6-5.2,1.2-7.8,1.9c-1.8,0.4-3.6,0.9-5.4,1.3c-2.4,0.5-4.8,1-7.2,1.5c-2.7,0.6-5.3,1.3-7.9,1.9
		c-1.7,0.4-3.4,0.8-5.1,1.2c-2.4,0.5-4.8,1-7.2,1.6c-2.7,0.6-5.3,1.4-7.9,1.8c-3.5,0.6-7,2.1-10.7,1.4c-1.7-0.3-3.4-0.8-5.1-1.3
		c-1.7-0.5-3.3-1.1-4.9-1.7c-1.8-0.6-3.6-1-5.4-1.6c-1.7-0.5-3.4-1.2-5.2-1.7c-1.3-0.4-2.5-0.8-3.8-1.2c-2.5-0.7-4.9-1.5-7.4-2.1
		c-1.9-0.5-5,1-6.2,2.5c-1.4,1.8-1.6,3.8-1.1,5.9c0.6,2.5,2.3,3.9,4.6,4.7c2.1,0.7,4.2,1.4,6.3,2c1.7,0.5,3.5,1,5.2,1.6
		c1.8,0.6,3.6,1.2,5.5,1.8c1.3,0.4,2.6,0.9,3.9,1.3c1.7,0.5,3.4,1,5.1,1.5c2,0.6,3.9,1.2,5.8,1.9c2.4,0.8,4.9,0.9,7.3,0.5
		c2.9-0.5,5.8-1.3,8.7-1.9c1.9-0.4,3.7-0.9,5.6-1.3c2.3-0.5,4.7-1,7-1.5c2.7-0.6,5.3-1.3,8-1.9c1.7-0.4,3.5-0.8,5.2-1.2
		c2.4-0.5,4.8-1,7.1-1.5c2.6-0.6,5.2-1.2,7.8-1.9c0.7-0.2,1.4-0.3,2.1-0.4c1-0.2,2-0.4,3-0.7c2.9-0.9,4.9,0.6,5.6,3.2v0.1
		c0.6,2.8,0.5,2.8-2.2,3.4c-2.3,0.5-4.6,1.1-6.9,1.7c-1.9,0.4-3.7,0.9-5.6,1.3c-2.5,0.5-5.1,1.1-7.6,1.6c-2.5,0.6-4.9,1.2-7.4,1.8
		c-1.7,0.4-3.5,0.8-5.2,1.2c-2.5,0.5-5.1,1-7.6,1.6s-5,1.2-7.5,1.8c-2.4,0.6-4.9,1.1-7.3,1.6c-1.8,0.4-3.6,0.7-5.5,0.9
		c-2.3,0.3-4.5-0.7-6.7-1.3c-1.7-0.5-3.3-1.1-5-1.7c-1.8-0.6-3.6-1-5.4-1.6c-1.8-0.5-3.5-1.2-5.3-1.7c-1.3-0.4-2.5-0.8-3.8-1.2
		c-2.5-0.7-4.9-1.5-7.4-2.2C46,86,42.5,87.3,41.3,89c-1.4,1.9-1.6,3.9-1.1,6.1c0.3,1.4,1.1,2.5,2.2,3.3c0.9,0.7,2,1.1,3.1,1.5
		c1.9,0.7,3.8,1.3,5.7,1.9c1.3,0.4,2.7,0.9,4,1.3c3,0.9,6.1,1.8,9.1,2.7c3,0.9,5.9,1.9,8.8,2.9c4,1.3,7.9,2.3,12.1,1.3
		c2.3-0.6,4.7-1.1,7-1.7c1.8-0.4,3.6-0.8,5.3-1.2c2.4-0.5,4.8-1,7.1-1.5c2.7-0.6,5.3-1.2,7.9-1.8c1.8-0.4,3.5-0.8,5.3-1.2
		c2.5-0.5,5-1,7.5-1.6s5-1.2,7.5-1.8c2.2-0.5,4.4-1,6.6-1.4c2.5-0.5,4.2,1.5,4.5,3.2v0.1c0.6,2.8,0.4,3-2.3,3.5
		c-4.3,0.9-8.6,2-12.9,3c-1.7,0.4-3.4,0.8-5.1,1.2c-2.5,0.5-5.1,1-7.6,1.6s-5,1.2-7.5,1.8c-1.8,0.4-3.5,0.9-5.3,1.2
		c-2.5,0.5-5,1-7.4,1.6c-2.5,0.6-4.9,1.2-7.4,1.8c-0.8,0.2-1.6,0.3-2.4,0.5c-0.8,0.2-1.6,0.8-2.4,0.9c-1.8,0.1-3.9,0.5-5.5-0.1
		c-1.9-0.7-3.9-1.2-5.8-1.9c-2-0.8-4-1.3-6-2c-1.4-0.4-2.7-0.9-4.1-1.3c-1.8-0.6-3.7-1-5.5-1.6c-1.7-0.5-3.4-1.2-5.2-1.7
		c-1.2-0.4-2.5-0.8-3.7-1.2c-1.7-0.5-3.5-1-5.2-1.6c-3.7-1.2-6.7-3.2-8.5-6.8c-0.4-0.8-0.8-1.7-1.2-2.6c-0.1-0.1-0.1-0.3-0.1-0.4
		c-1.6-2.1-0.5-4.4-0.7-6.6c1.5-2.1,2.1-4.9,4.1-6.8c0.9-0.9,1-1.6,0.1-2.4c-1.6-1.6-2.8-3.4-3.4-5.6c0-0.1,0-0.1-0.1-0.2
		c-1.4-1.2-0.8-2.8-0.9-4.3c0-0.6-0.1-1.2,0-1.8c0.1-0.4,0.3-0.8,0.5-1.2c0.1-0.2,0.3-0.4,0.4-0.7c0.6-2.2,1.9-4.1,3.5-5.8
		c0.8-0.8,0.8-1.5,0-2.4c-1.8-2-3.1-4.3-3.5-7c-0.1-0.4-0.3-0.8-0.5-1.1c-0.3-0.5-0.4-1.9-0.2-2.4c0.3-0.5,0.6-1,0.7-1.5
		c0.5-2.9,1.9-5.3,4-7.4c2.5-2.5,5.6-3.5,9-4c2.6-0.4,5.2-0.8,7.8-1.3c3.1-0.5,6.1-1,9.2-1.6c2.9-0.5,5.7-1.2,8.6-1.7
		c0.2,0,0.4-0.1,0.7-0.2c3.1-0.5,6.3-1,9.4-1.6c4.8-0.9,9.5-2,14.3-2.8C98.6,25.8,101.3,25.8,104,25.6z"/>
</g>
<text transform="matrix(1 0 0 1 174.3163 96.1198)" class="st2 st3 st4">BOOKCELLAR</text>
</svg>
