<?xml version="1.0" encoding="utf-8"?>
<!-- Generator: Adobe Illustrator 23.1.1, SVG Export Plug-In . SVG Version: 6.00 Build 0)  -->
<svg version="1.1" id="Layer_1" xmlns="http://www.w3.org/2000/svg" xmlns:xlink="http://www.w3.org/1999/xlink" x="0px" y="0px"
	 viewBox="0 0 100 100" style="enable-background:new 0 0 100 100;" xml:space="preserve">
<style type="text/css">
	.st0{fill:#FEFEFE;}
	.st1{fill:#5B218A;}
</style>
<g>
	<path class="st0" d="M100,50c0,16.4,0,32.7,0,49.1c0,0.7-0.1,0.9-0.9,0.9c-32.8,0-65.5,0-98.3,0C0.1,100,0,99.8,0,99.1
		C0,66.4,0,33.6,0,0.9C0,0.2,0.1,0,0.8,0c32.8,0,65.6,0,98.4,0c0.7,0,0.8,0.2,0.8,0.8C100,17.2,100,33.6,100,50z"/>
	<path class="st1" d="M58.8,9C68,9,77.2,9,86.4,9c2.5,0,5,0.6,7,2.2c2.7,2.1,4.4,4.8,4.4,8.4c0,10.4,0,20.8,0,31.1c0,4-2,6.9-5.4,9
		c-2.3,1.4-4.7,1.7-7.3,1.5c-0.8,0-1,0.1-1,1c0,3.4,0.3,6.8,0.2,10.2c0,0.8,0.2,1.6,0.2,2.4c-0.1,0.8-0.3,1.6-1.1,2
		c-0.8,0.5-1.6,0.1-2.2-0.3c-3.9-2.7-7.8-5.5-11.6-8.3c-3-2.1-6-4.3-9-6.4c-0.6-0.4-1.4-0.6-2.3-0.6c-9.3,0-18.5,0-27.8,0
		c-5.5,0-10-3.8-11-9.4c0-0.3,0-0.5,0-0.8c0-10.4,0-20.9,0-31.3c0-4.6,3.4-8.9,7.7-10.3c1.3-0.4,2.6-0.6,4-0.6C40.4,9,49.6,9,58.8,9
		z"/>
	<path class="st1" d="M43.4,65.4c4.1,0,8.2,0.1,12.3,0c2-0.1,3.8,0.3,5.4,1.6c1.7,1.4,3.5,2.5,5.3,3.8c0.4,0.3,0.5,0.6,0.3,1.1
		c-1.4,3.4-4.9,5.8-8.7,5.8c-7.5,0-15,0-22.4,0c-1,0-1.9,0.3-2.7,0.9c-5.4,3.9-10.9,7.8-16.3,11.6c-0.6,0.4-1.3,0.9-2.1,0.4
		c-0.8-0.5-1.1-1.1-1.1-2c-0.1-3,0.2-6,0.2-9.1c0-1.6,0-1.6-1.5-1.6c-2.3,0.1-4.4-0.5-6.2-2c-2.2-1.7-3.5-3.9-3.5-6.7
		c-0.1-8.6,0-17.2,0-25.8c0-4.1,3.1-7.8,6.9-8.7c1.9-0.5,3.8-0.3,5.7-0.3c0.7,0,0.5,0.5,0.5,0.9c0,4.7,0,9.5,0,14.2
		c0,3.6,0.8,7,3.1,9.8c2.5,3.1,5.6,5.2,9.6,5.8c2.1,0.3,4.1,0.1,6.2,0.2C37.3,65.5,40.3,65.4,43.4,65.4z"/>
	<path class="st0" d="M37.2,26.4c4.7-0.1,8.5,3.8,8.4,8.5c-0.1,5.2-3.8,8.5-8.5,8.5c-4.9,0-8.5-3.9-8.4-8.6
		C28.8,30.2,32.6,26.3,37.2,26.4z"/>
	<path class="st0" d="M80,26.4c4.4-0.2,8.7,3.7,8.5,8.7c-0.2,4.8-3.7,8.2-8.5,8.2c-4.7,0-8.5-3.6-8.5-8.5
		C71.5,30.2,75.2,26.3,80,26.4z"/>
	<path class="st0" d="M67,34.9c0.1,4.9-3.9,8.5-8.4,8.4c-4.7-0.1-8.7-3.8-8.4-9.1c0.2-3.7,3.8-8.2,9-7.8
		C62.9,26.6,67.3,30.2,67,34.9z"/>
	<path class="st1" d="M37.2,39.5c-2.4,0.2-4.7-2-4.7-4.6c0-2.7,2.1-4.8,4.8-4.8c2.9,0.1,4.7,2.2,4.7,4.8
		C42,37.4,39.7,39.7,37.2,39.5z"/>
	<path class="st1" d="M80,39.5c-2.6,0.2-4.8-2.2-4.7-4.7c0.1-2.8,2-4.6,4.8-4.7c2.5,0,4.7,2.1,4.7,4.7C84.7,37.5,82.4,39.7,80,39.5z
		"/>
	<path class="st1" d="M58.6,39.5c-2.6,0.3-4.7-2.3-4.7-4.7c0-2.2,2.1-4.7,4.7-4.7c2.6,0,4.9,2.3,4.8,4.9
		C63.2,37.3,61.1,39.7,58.6,39.5z"/>
</g>
</svg>
